<!-- filepath: /home/khushal/Desktop/bsShekhawat/staffing-service/src/assets/react.svg -->
<svg xmlns="http://www.w3.org/2000/svg" viewBox="0 0 841.9 595.3">
  <g>
    <path d="M420.9 0C188.5 0 0 188.5 0 420.9s188.5 420.9 420.9 420.9 420.9-188.5 420.9-420.9S653.3 0 420.9 0zm0 785.8c-200.1 0-364.9-164.8-364.9-364.9S220.8 55.9 420.9 55.9 785.8 220.7 785.8 420.9 620.9 785.8 420.9 785.8z"/>
    <path d="M420.9 113.5c-169.2 0-306.9 137.7-306.9 306.9s137.7 306.9 306.9 306.9 306.9-137.7 306.9-306.9-137.7-306.9-306.9-306.9zm0 563.8c-141.4 0-256.9-115.5-256.9-256.9S279.5 163.5 420.9 163.5 677.8 279 677.8 420.9 562.3 677.3 420.9 677.3z"/>
    <path d="M420.9 226.5c-106.5 0-192.4 86-192.4 192.4s86 192.4 192.4 192.4 192.4-86 192.4-192.4-86-192.4-192.4-192.4zm0 348.8c-86.1 0-155.8-69.7-155.8-155.8s69.7-155.8 155.8-155.8 155.8 69.7 155.8 155.8-69.7 155.8-155.8 155.8z"/>
  </g>
</svg>